<?xml version="1.0" encoding="UTF-8"?><!DOCTYPE svg PUBLIC "-//W3C//DTD SVG 1.1//EN" "http://www.w3.org/Graphics/SVG/1.1/DTD/svg11.dtd"><svg xmlns="http://www.w3.org/2000/svg"><symbol id="i-ion-chatbubble" viewBox="0 0 512 512"><path d="M256 449.4c28.9 0 56.4-5.7 81.3-15.9.6-.3 1.1-.5 1.7-.7.1 0 .2 0 .2-.1 3.5-1.3 7.3-2 11.2-2 4.3 0 8.4.8 12.1 2.4l84 30.9-22.1-88.4c0-5.3 1.5-10.3 3.9-14.6.8-1.3 1.6-2.6 2.5-3.7 20.9-31.3 33-68.5 33-108.4C464 137.9 370.9 48 256 48S48 137.9 48 248.7c0 110.9 93.1 200.7 208 200.7z"/></symbol><symbol id="i-ion-edit" viewBox="0 0 512 512"><path d="M163 439.573l-90.57-90.57L322.78 98.657l90.568 90.57zM471.723 88.393L423.608 40.28c-11.723-11.725-31.558-10.897-44.304 1.85L334.102 87.33l90.57 90.568 45.2-45.202c12.744-12.746 13.573-32.582 1.85-44.305zM64.02 363.252L32 480l116.737-32.02z"/></symbol><symbol id="i-ion-image" viewBox="0 0 512 512"><path d="M368 224c26.5 0 48-21.5 48-48s-21.5-48-48-48-48 21.5-48 48 21.5 48 48 48zM452 64H60c-15.6 0-28 12.7-28 28.3v327.4c0 15.6 12.4 28.3 28 28.3h392c15.6 0 28-12.7 28-28.3V92.3c0-15.6-12.4-28.3-28-28.3zM348.9 261.7c-3-3.5-7.6-6.2-12.8-6.2-5.1 0-8.7 2.4-12.8 5.7L304.6 277c-3.9 2.8-7 4.7-11.5 4.7-4.3 0-8.2-1.6-11-4.1-1-.9-2.8-2.6-4.3-4.1L224 215.3c-4-4.6-10-7.5-16.7-7.5-6.7 0-12.9 3.3-16.8 7.8L64 368.2V107.7c1-6.8 6.3-11.7 13.1-11.7h357.7c6.9 0 12.5 5.1 12.9 12l.3 260.4-99.1-106.7z"/></symbol><symbol id="i-ion-images" viewBox="0 0 512 512"><path d="M457.6 140.2l-82.5-4-4.8-53.8c-1-11.3-11.1-19.2-22.9-18.3l-296 24.3c-11.8 1-20.3 10.5-19.4 21.7l21.2 235.8c1 11.3 11.2 19.2 22.9 18.3l15-1.2-2.4 45.8c-.6 12.6 9.2 22.8 22.4 23.5L441.3 448c13.2.6 24.1-8.6 24.8-21.2L480 163.5c.6-12.5-9.3-22.7-22.4-23.3zm-355 5.3l-7.1 134.8L78.1 305l-16-178v-1c.5-5 4.3-9 9.5-9.4l261-21.4c5.2-.4 9.7 3 10.5 7.9 0 .2.3.2.3.4 0 .1.3.2.3.4l2.7 30.8-219-10.5c-13.2-.4-24.2 8.8-24.8 21.3zm334.1 236.9L390 327.1l-27.5-32.7c-2.4-2.9-6.3-5.3-10.6-5.5-4.3-.2-7.5 1.5-11.1 4.1l-16.4 11.9c-3.5 2.1-6.2 3.5-9.9 3.3-3.6-.2-6.8-1.6-9.1-3.8-.8-.8-2.3-2.2-3.5-3.4l-42.8-48.9c-3.1-3.9-8.2-6.4-13.8-6.7-5.7-.3-11.2 2.1-14.8 5.6L129.4 359.8l-6.8 7.4.3-6.8 6.8-128.9 3.3-62.9v-1c1.4-5.4 6.2-9.3 11.9-9l204.2 9.8 28.7 1.4 58.3 2.8c5.8.3 10.3 4.7 10.4 10.2 0 .2.3.3.3.5s.3.3.3.5l-10.4 198.6zM373.2 262.3c19.4 0 35.2-15.8 35.2-35.2s-15.7-35.2-35.2-35.2c-19.4 0-35.2 15.7-35.2 35.2s15.7 35.2 35.2 35.2z"/></symbol><symbol id="i-typ-edit" viewBox="0 0 24 24"><path d="M21.56 5.318l-2.878-2.88C18.39 2.147 18.005 2 17.622 2c-.386 0-.77.146-1.062.44L13 6H4c-.552 0-1 .447-1 1v13c0 .553.448 1 1 1h13c.552 0 1-.447 1-1v-9l3.56-3.56c.294-.294.44-.678.44-1.062s-.146-.767-.44-1.06zM11.5 14.672L9.328 12.5l6.293-6.293 2.173 2.172L11.5 14.67zm-2.56-1.34l1.755 1.73L9 15l-.06-1.667zM16 19H5V8h6l-3.18 3.18c-.293.293-.478.812-.63 1.29-.16.5-.19 1.055-.19 1.47V17h3.06c.415 0 1.11-.1 1.572-.29.464-.19.896-.347 1.188-.64L16 13v6zm2.5-11.328L16.328 5.5l1.293-1.293 2.172 2.172L18.5 7.67z"/></symbol><symbol id="i-typ-link" viewBox="0 0 24 24"><path d="M18.277 6.32c-.43-.43-1.126-.43-1.556 0L15 8.044l-.308-.308c-1.168-1.168-3.216-1.168-4.384 0l-4.172 4.172c-.584.584-.906 1.363-.906 2.192s.322 1.607.906 2.19l.308.31-1.722 1.72c-.43.43-.43 1.127 0 1.557.215.215.496.322.778.322s.563-.108.778-.323L8 18.155l.308.308c.584.584 1.362.906 2.192.906s1.608-.323 2.192-.907l4.172-4.172c.584-.583.906-1.36.906-2.19s-.322-1.61-.906-2.193l-.308-.308 1.722-1.723c.43-.43.43-1.126 0-1.556zm-2.97 6.415l-4.17 4.172c-.17.168-.403.253-.637.253s-.468-.084-.636-.253l-.308-.308.722-.723c.43-.43.43-1.126 0-1.556-.215-.214-.496-.32-.778-.32s-.563.106-.778.32L8 15.044l-.308-.308c-.168-.168-.26-.395-.26-.636s.092-.47.26-.637l4.172-4.172c.168-.167.394-.26.636-.26s.468.093.636.26l.308.31-.722.72c-.43.43-.43 1.127 0 1.557.215.215.496.322.778.322s.563-.108.778-.323l.722-.722.308.308c.168.168.26.395.26.636s-.092.467-.26.635z"/></symbol><symbol id="i-typ-location" viewBox="0 0 24 24"><path d="M17.657 5.304c-3.124-3.073-8.19-3.073-11.313 0-3.124 3.074-3.124 8.057 0 11.13L12 22l5.657-5.566c3.124-3.073 3.124-8.056 0-11.13zM12 13.5c-.668 0-1.295-.26-1.768-.733-.975-.975-.975-2.56 0-3.536.472-.47 1.1-.73 1.768-.73s1.296.26 1.768.73c.975.976.975 2.563 0 3.537-.472.472-1.1.732-1.768.732z"/></symbol><symbol id="i-typ-media-fast-forward" viewBox="0 0 24 24"><path d="M15.053 6.912c-.324-.314-.765-.512-1.253-.512-.994 0-1.8.807-1.8 1.8v9c0 .995.806 1.8 1.8 1.8.488 0 .93-.195 1.253-.512C17.433 16.174 21 12.7 21 12.7s-3.566-3.473-5.947-5.788zm-9 0C5.73 6.598 5.288 6.4 4.8 6.4c-.994 0-1.8.807-1.8 1.8v9c0 .995.806 1.8 1.8 1.8.488 0 .93-.195 1.253-.512C8.433 16.174 12 12.7 12 12.7S8.434 9.228 6.053 6.913z"/></symbol><symbol id="i-typ-media-pause" viewBox="0 0 24 24"><path d="M8 6c-1.104 0-2 .896-2 2v8c0 1.104.896 2 2 2s2-.896 2-2V8c0-1.104-.896-2-2-2zm7 0c-1.104 0-2 .896-2 2v8c0 1.104.896 2 2 2s2-.896 2-2V8c0-1.104-.896-2-2-2z"/></symbol><symbol id="i-typ-media-play" viewBox="0 0 24 24"><path d="M10.396 18.433C13.036 15.86 17 12 17 12l-6.604-6.433C10.033 5.217 9.543 5 9 5c-1.104 0-2 .896-2 2v10c0 1.104.896 2 2 2 .543 0 1.033-.218 1.396-.567z"/></symbol><symbol id="i-typ-media-rewind" viewBox="0 0 24 24"><path d="M10.2 6.4c-.488 0-.93.197-1.253.512C6.567 9.227 3 12.702 3 12.702l5.944 5.788c.326.315.768.51 1.256.51.994 0 1.8-.805 1.8-1.8v-9c0-.993-.806-1.8-1.8-1.8zm9 0c-.488 0-.93.197-1.253.512-2.38 2.315-5.947 5.79-5.947 5.79l5.944 5.788c.326.315.768.51 1.256.51.994 0 1.8-.805 1.8-1.8v-9c0-.993-.806-1.8-1.8-1.8z"/></symbol><symbol id="i-typ-media-stop" viewBox="0 0 24 24"><path d="M16 6H8c-1.1 0-2 .9-2 2v8c0 1.1.9 2 2 2h8c1.1 0 2-.9 2-2V8c0-1.1-.9-2-2-2z"/></symbol><symbol id="i-typ-pencil" viewBox="0 0 24 24"><path d="M21 6.88L17.12 3c-.292-.293-.677-.44-1.06-.44-.384 0-.767.147-1.06.44L4.06 13.94c-.292.292-.557.726-.75 1.187-.19.463-.31.96-.31 1.373V21h4.5c.414 0 .908-.12 1.37-.31.464-.193.897-.458 1.19-.75L21 9c.293-.293.44-.678.44-1.06 0-.385-.147-.768-.44-1.06zM5.768 15.06L14.06 6.77 15.294 8 7 16.293 5.768 15.06zM7.5 19H6l-1-1v-1.5c0-.077.033-.305.158-.605.01-.02 2.967 2.938 2.967 2.938-.322.134-.548.167-.625.167zm1.44-.768L7.706 17 16 8.707l1.232 1.232L8.94 18.23zm9-9L14.766 6.06l1.293-1.293 3.17 3.172-1.29 1.292z"/></symbol><symbol id="i-typ-rss" viewBox="0 0 24 24"><path d="M6.002 16c-1.107 0-2.004.896-2.002 2 0 1.104.896 2 2.002 2 1.103 0 2-.895 1.998-2 .002-1.107-.895-2.003-1.998-2zM6 4c-1.104 0-2 .896-2 2s.896 2 2 2c5.514 0 10 4.486 10 10 0 1.104.896 2 2 2s2-.896 2-2c0-7.72-6.28-14-14-14zm0 6c-1.104 0-2 .896-2 2s.896 2 2 2c2.205 0 4 1.794 4 4 0 1.104.896 2 2 2s2-.896 2-2c0-4.41-3.59-8-8-8z"/></symbol><symbol id="i-typ-volume-down" viewBox="0 0 24 24"><path d="M15.138 5.824c-.45 0-.905.152-1.356.453l-2.672 1.78C10.357 8.562 8.904 9 8 9c-1.654 0-3 1.346-3 3v2c0 1.654 1.346 3 3 3 .904 0 2.357.44 3.11.94l2.67 1.782c.452.3.908.453 1.357.453.898 0 1.863-.68 1.863-2.175V8c0-1.495-.965-2.176-1.862-2.176zM8 15c-.552 0-1-.448-1-1v-2c0-.552.448-1 1-1 1.21 0 2.907-.495 4-1.146v6.293C10.907 15.495 9.21 15 8 15zm7 3l-.006.12-.104-.062-1.89-1.26V9.202l1.89-1.26.105-.063L15 8v10zm3.292-7.706c-.39.39-.39 1.023.002 1.414.345.345.535.803.535 1.29 0 .49-.19.95-.537 1.295-.39.39-.39 1.023 0 1.414.195.195.45.293.707.293s.512-.098.707-.293c.724-.723 1.122-1.685 1.122-2.708s-.4-1.985-1.124-2.708c-.39-.39-1.023-.39-1.414.002z"/></symbol><symbol id="i-typ-volume-mute" viewBox="0 0 24 24"><path d="M19.707 5.293c-.39-.39-1.023-.39-1.414 0l-1.55 1.55c-.346-.687-.988-1.02-1.605-1.02-.45 0-.905.153-1.356.454l-2.672 1.78C10.357 8.562 8.904 9 8 9c-1.654 0-3 1.346-3 3v2c0 1.237.754 2.302 1.826 2.76l-1.533 1.533c-.39.39-.39 1.023 0 1.414.195.195.45.293.707.293s.512-.098.707-.293l2.527-2.527c.697.174 1.416.455 1.875.762l2.67 1.78c.452.302.908.454 1.357.454.898 0 1.863-.68 1.863-2.176V9.414l2.707-2.707c.39-.39.39-1.023 0-1.414zM14.89 7.94l.105-.06L15 8v1.293l-2 2v-2.09l1.89-1.262zM7 12c0-.552.448-1 1-1 1.21 0 2.907-.495 4-1.146v2.44l-2.83 2.83C8.757 15.045 8.356 15 8 15c-.552 0-1-.448-1-1v-2zm3.3 3.406l1.7-1.7v2.44c-.48-.287-1.075-.542-1.7-.74zm4.694 2.714l-.104-.062-1.89-1.26v-4.09l2-2V18l-.006.12z"/></symbol><symbol id="i-typ-volume-up" viewBox="0 0 24 24"><path d="M16.706 10.292c-.39-.39-1.023-.39-1.414.002-.39.39-.39 1.023.002 1.414.345.345.535.803.535 1.29 0 .49-.19.95-.537 1.295-.39.39-.39 1.023 0 1.414.195.195.45.293.707.293s.512-.098.707-.293c.724-.723 1.122-1.685 1.122-2.708s-.4-1.985-1.124-2.708zm2-2c-.39-.39-1.023-.39-1.414.002-.39.39-.39 1.024.002 1.414.88.877 1.363 2.044 1.364 3.287 0 1.246-.484 2.417-1.365 3.298-.39.39-.39 1.023 0 1.414.195.195.45.293.707.293s.512-.098.707-.293c1.26-1.26 1.952-2.933 1.95-4.713 0-1.777-.693-3.447-1.95-4.702zm2-2c-.39-.39-1.023-.39-1.414.002-.39.39-.39 1.024.002 1.414 1.412 1.41 2.19 3.285 2.192 5.284.002 2.002-.777 3.885-2.193 5.3-.39.392-.39 1.024 0 1.415.195.195.45.293.707.293s.512-.098.707-.293c1.794-1.794 2.78-4.18 2.78-6.717-.002-2.533-.99-4.912-2.78-6.698zm-8.568-.468c-.45 0-.905.152-1.356.453L8.11 8.06C7.356 8.56 5.903 9 5 9c-1.654 0-3 1.346-3 3v2c0 1.654 1.346 3 3 3 .904 0 2.357.44 3.11.94l2.67 1.782c.452.3.908.453 1.357.453.898 0 1.863-.68 1.863-2.175V8c0-1.495-.965-2.176-1.862-2.176zM5 15c-.552 0-1-.448-1-1v-2c0-.552.448-1 1-1 1.21 0 2.907-.495 4-1.146v6.293C7.907 15.495 6.21 15 5 15zm7 3l-.006.12-.104-.062-1.89-1.26V9.202l1.89-1.26.105-.063L12 8v10z"/></symbol><symbol id="i-typ-volume" viewBox="0 0 24 24"><path d="M17.138 5.824c-.45 0-.905.152-1.356.453l-2.672 1.78C12.357 8.562 10.904 9 10 9c-1.654 0-3 1.346-3 3v2c0 1.654 1.346 3 3 3 .904 0 2.357.44 3.11.94l2.67 1.782c.452.3.908.453 1.357.453.898 0 1.863-.68 1.863-2.175V8c0-1.495-.965-2.176-1.862-2.176zM14 16.146C12.907 15.496 11.21 15 10 15c-.552 0-1-.448-1-1v-2c0-.552.448-1 1-1 1.21 0 2.907-.495 4-1.146v6.292zM17 18l-.006.12-.104-.062-1.89-1.26V9.202l1.89-1.26.105-.063L17 8v10z"/></symbol></svg>