<svg xmlns="http://www.w3.org/2000/svg" style="display:none"><symbol id="i-edit" viewBox="0 0 24 24"><path d="M21.56 5.318l-2.878-2.88C18.39 2.147 18.005 2 17.622 2c-.386 0-.77.146-1.062.44L13 6H4c-.552 0-1 .447-1 1v13c0 .553.448 1 1 1h13c.552 0 1-.447 1-1v-9l3.56-3.56c.294-.294.44-.678.44-1.062s-.146-.767-.44-1.06zM11.5 14.672L9.328 12.5l6.293-6.293 2.173 2.172L11.5 14.67zm-2.56-1.34l1.755 1.73L9 15l-.06-1.667zM16 19H5V8h6l-3.18 3.18c-.293.293-.478.812-.63 1.29-.16.5-.19 1.055-.19 1.47V17h3.06c.415 0 1.11-.1 1.572-.29.464-.19.896-.347 1.188-.64L16 13v6zm2.5-11.328L16.328 5.5l1.293-1.293 2.172 2.172L18.5 7.67z"/></symbol><symbol id="i-link" viewBox="0 0 24 24"><path d="M18.277 6.32c-.43-.43-1.126-.43-1.556 0L15 8.044l-.308-.308c-1.168-1.168-3.216-1.168-4.384 0l-4.172 4.172c-.584.584-.906 1.363-.906 2.192s.322 1.607.906 2.19l.308.31-1.722 1.72c-.43.43-.43 1.127 0 1.557.215.215.496.322.778.322s.563-.108.778-.323L8 18.155l.308.308c.584.584 1.362.906 2.192.906s1.608-.323 2.192-.907l4.172-4.172c.584-.583.906-1.36.906-2.19s-.322-1.61-.906-2.193l-.308-.308 1.722-1.723c.43-.43.43-1.126 0-1.556zm-2.97 6.415l-4.17 4.172c-.17.168-.403.253-.637.253s-.468-.084-.636-.253l-.308-.308.722-.723c.43-.43.43-1.126 0-1.556-.215-.214-.496-.32-.778-.32s-.563.106-.778.32L8 15.044l-.308-.308c-.168-.168-.26-.395-.26-.636s.092-.47.26-.637l4.172-4.172c.168-.167.394-.26.636-.26s.468.093.636.26l.308.31-.722.72c-.43.43-.43 1.127 0 1.557.215.215.496.322.778.322s.563-.108.778-.323l.722-.722.308.308c.168.168.26.395.26.636s-.092.467-.26.635z"/></symbol><symbol id="i-media-fast-forward" viewBox="0 0 24 24"><path d="M15.053 6.912c-.324-.314-.765-.512-1.253-.512-.994 0-1.8.807-1.8 1.8v9c0 .995.806 1.8 1.8 1.8.488 0 .93-.195 1.253-.512C17.433 16.174 21 12.7 21 12.7s-3.566-3.473-5.947-5.788zm-9 0C5.73 6.598 5.288 6.4 4.8 6.4c-.994 0-1.8.807-1.8 1.8v9c0 .995.806 1.8 1.8 1.8.488 0 .93-.195 1.253-.512C8.433 16.174 12 12.7 12 12.7S8.434 9.228 6.053 6.913z"/></symbol><symbol id="i-media-pause" viewBox="0 0 24 24"><path d="M8 6c-1.104 0-2 .896-2 2v8c0 1.104.896 2 2 2s2-.896 2-2V8c0-1.104-.896-2-2-2zm7 0c-1.104 0-2 .896-2 2v8c0 1.104.896 2 2 2s2-.896 2-2V8c0-1.104-.896-2-2-2z"/></symbol><symbol id="i-media-play" viewBox="0 0 24 24"><path d="M10.396 18.433C13.036 15.86 17 12 17 12l-6.604-6.433C10.033 5.217 9.543 5 9 5c-1.104 0-2 .896-2 2v10c0 1.104.896 2 2 2 .543 0 1.033-.218 1.396-.567z"/></symbol><symbol id="i-media-rewind" viewBox="0 0 24 24"><path d="M10.2 6.4c-.488 0-.93.197-1.253.512C6.567 9.227 3 12.702 3 12.702l5.944 5.788c.326.315.768.51 1.256.51.994 0 1.8-.805 1.8-1.8v-9c0-.993-.806-1.8-1.8-1.8zm9 0c-.488 0-.93.197-1.253.512-2.38 2.315-5.947 5.79-5.947 5.79l5.944 5.788c.326.315.768.51 1.256.51.994 0 1.8-.805 1.8-1.8v-9c0-.993-.806-1.8-1.8-1.8z"/></symbol><symbol id="i-pencil" viewBox="0 0 24 24"><path d="M21 6.88L17.12 3c-.292-.293-.677-.44-1.06-.44-.384 0-.767.147-1.06.44L4.06 13.94c-.292.292-.557.726-.75 1.187-.19.463-.31.96-.31 1.373V21h4.5c.414 0 .908-.12 1.37-.31.464-.193.897-.458 1.19-.75L21 9c.293-.293.44-.678.44-1.06 0-.385-.147-.768-.44-1.06zM5.768 15.06L14.06 6.77 15.294 8 7 16.293 5.768 15.06zM7.5 19H6l-1-1v-1.5c0-.077.033-.305.158-.605.01-.02 2.967 2.938 2.967 2.938-.322.134-.548.167-.625.167zm1.44-.768L7.706 17 16 8.707l1.232 1.232L8.94 18.23zm9-9L14.766 6.06l1.293-1.293 3.17 3.172-1.29 1.292z"/></symbol></svg>