<svg xmlns="http://www.w3.org/2000/svg" xmlns:xlink="http://www.w3.org/1999/xlink" width="120" height="120" viewBox="0 0 120 120"><svg version="1.2" baseProfile="tiny" width="24" height="24" viewBox="0 0 24 24" id="link" x="0" y="0"><path d="M18.277 6.32c-.43-.43-1.126-.43-1.556 0L15 8.044l-.308-.308c-1.168-1.168-3.216-1.168-4.384 0l-4.172 4.172c-.584.584-.906 1.363-.906 2.192s.322 1.607.906 2.19l.308.31-1.722 1.72c-.43.43-.43 1.127 0 1.557.215.215.496.322.778.322s.563-.11.778-.324L8 18.156l.308.307c.584.584 1.362.906 2.192.906s1.608-.324 2.192-.908l4.172-4.172c.584-.583.906-1.36.906-2.19s-.322-1.61-.906-2.193l-.308-.308 1.722-1.724c.43-.43.43-1.126 0-1.556zm-2.97 6.415l-4.17 4.172c-.17.168-.403.253-.637.253s-.468-.084-.636-.253l-.308-.308.722-.724c.43-.43.43-1.126 0-1.556-.215-.214-.496-.32-.778-.32s-.563.106-.778.32L8 15.044l-.308-.308c-.168-.168-.26-.395-.26-.636s.092-.47.26-.637l4.172-4.172c.168-.166.394-.26.636-.26s.468.094.636.26l.308.31-.722.72c-.43.43-.43 1.128 0 1.558.215.215.496.322.778.322s.563-.108.778-.323l.722-.722.308.308c.168.168.26.395.26.636s-.092.466-.26.634z"/></svg>
<svg version="1.2" baseProfile="tiny" width="24" height="24" viewBox="0 0 24 24" id="media-fast-forward" x="24" y="24"><path d="M15.053 6.912c-.324-.314-.765-.512-1.253-.512-.994 0-1.8.807-1.8 1.8v9c0 .995.806 1.8 1.8 1.8.488 0 .93-.195 1.253-.512C17.433 16.174 21 12.7 21 12.7s-3.566-3.473-5.947-5.788zm-9 0C5.73 6.598 5.288 6.4 4.8 6.4c-.994 0-1.8.807-1.8 1.8v9c0 .995.806 1.8 1.8 1.8.488 0 .93-.195 1.253-.512C8.433 16.174 12 12.7 12 12.7S8.434 9.228 6.053 6.913z"/></svg>
<svg version="1.2" baseProfile="tiny" width="24" height="24" viewBox="0 0 24 24" id="media-pause" x="48" y="48"><path d="M8 6c-1.104 0-2 .896-2 2v8c0 1.104.896 2 2 2s2-.896 2-2V8c0-1.104-.896-2-2-2zm7 0c-1.104 0-2 .896-2 2v8c0 1.104.896 2 2 2s2-.896 2-2V8c0-1.104-.896-2-2-2z"/></svg>
<svg version="1.2" baseProfile="tiny" width="24" height="24" viewBox="0 0 24 24" id="media-play" x="72" y="72"><path d="M10.396 18.433L17 12l-6.604-6.433C10.033 5.217 9.543 5 9 5c-1.104 0-2 .896-2 2v10c0 1.104.896 2 2 2 .543 0 1.033-.218 1.396-.567z"/></svg>
<svg version="1.2" baseProfile="tiny" width="24" height="24" viewBox="0 0 24 24" id="media-rewind" x="96" y="96"><path d="M10.2 6.4c-.488 0-.93.197-1.253.512C6.567 9.227 3 12.702 3 12.702l5.944 5.788c.326.315.768.51 1.256.51.994 0 1.8-.805 1.8-1.8v-9c0-.993-.806-1.8-1.8-1.8zm9 0c-.488 0-.93.197-1.253.512-2.38 2.315-5.947 5.79-5.947 5.79l5.944 5.788c.326.315.768.51 1.256.51.994 0 1.8-.805 1.8-1.8v-9c0-.993-.806-1.8-1.8-1.8z"/></svg>
</svg>