<?xml version="1.0" encoding="UTF-8"?><!DOCTYPE svg PUBLIC "-//W3C//DTD SVG 1.1//EN" "http://www.w3.org/Graphics/SVG/1.1/DTD/svg11.dtd"><svg xmlns="http://www.w3.org/2000/svg"><symbol id="awe-caret-down" viewBox="0 0 2048 2048"><path d="M1536 832q0 26-19 45l-448 448q-19 19-45 19t-45-19L531 877q-19-19-19-45t19-45 45-19h896q26 0 45 19t19 45z"/></symbol><symbol id="awe-comment" viewBox="0 0 2048 2048"><path d="M1920 1024q0 174-120 321.5t-326 233-450 85.5q-70 0-145-8-198 175-460 242-49 14-114 22-17 2-30.5-9t-17.5-29v-1q-3-4-.5-12t2-10 4.5-9.5l6-9 7-8.5 8-9q7-8 31-34.5t34.5-38 31-39.5 32.5-51 27-59 26-76q-157-89-247.5-220T128 1024q0-130 71-248.5T390 571t286-136.5 348-50.5q244 0 450 85.5t326 233 120 321.5z"/></symbol><symbol id="awe-sort" viewBox="0 0 2048 2048"><path d="M1536 1216q0 26-19 45l-448 448q-19 19-45 19t-45-19l-448-448q-19-19-19-45t19-45 45-19h896q26 0 45 19t19 45zm0-384q0 26-19 45t-45 19H576q-26 0-45-19t-19-45 19-45l448-448q19-19 45-19t45 19l448 448q19 19 19 45z"/></symbol><symbol id="ion-image" viewBox="0 0 512 512"><path d="M368 224c26.5 0 48-21.5 48-48s-21.5-48-48-48-48 21.5-48 48 21.5 48 48 48z"/><path d="M452 64H60c-15.6 0-28 12.7-28 28.3v327.4c0 15.6 12.4 28.3 28 28.3h392c15.6 0 28-12.7 28-28.3V92.3c0-15.6-12.4-28.3-28-28.3zM348.9 261.7c-3-3.5-7.6-6.2-12.8-6.2-5.1 0-8.7 2.4-12.8 5.7L304.6 277c-3.9 2.8-7 4.7-11.5 4.7-4.3 0-8.2-1.6-11-4.1-1-.9-2.8-2.6-4.3-4.1L224 215.3c-4-4.6-10-7.5-16.7-7.5-6.7 0-12.9 3.3-16.8 7.8L64 368.2V107.7c1-6.8 6.3-11.7 13.1-11.7h357.7c6.9 0 12.5 5.1 12.9 12l.3 260.4-99.1-106.7z"/></symbol><symbol id="ion-search" viewBox="0 0 512 512"><path d="M445 386.7l-84.8-85.9c13.8-24.1 21-50.9 21-77.9C381.2 135.3 310 64 222.6 64 135.2 64 64 135.3 64 222.9c0 87.6 71.2 158.9 158.6 158.9 27.9 0 55.5-7.7 80.1-22.4l84.4 85.6c1.9 1.9 4.6 3.1 7.3 3.1s5.4-1.1 7.3-3.1l43.3-43.8c4-4.1 4-10.5 0-14.5zM222.6 125.9c53.4 0 96.8 43.5 96.8 97s-43.4 97-96.8 97-96.8-43.5-96.8-97 43.4-97 96.8-97z"/></symbol><symbol id="typ-arrow-left-thick" viewBox="0 0 24 24"><path d="M18 11h-7.244l1.586-1.586a2 2 0 1 0-2.828-2.828L3.1 13l6.414 6.414c.39.39.902.586 1.414.586s1.023-.195 1.414-.586a2 2 0 0 0 0-2.828L10.756 15H18a2 2 0 0 0 0-4z"/></symbol><symbol id="typ-arrow-right-thick" viewBox="0 0 24 24"><path d="M10.586 6.586a2 2 0 0 0 0 2.828L12.172 11H4.928a2 2 0 0 0 0 4h7.244l-1.586 1.586a2 2 0 1 0 2.828 2.828L19.828 13l-6.414-6.414a2 2 0 0 0-2.828 0z"/></symbol><symbol id="typ-arrow-up-thick" viewBox="0 0 24 24"><path d="M12 3.172L5.586 9.586a2 2 0 0 0 2.828 2.828L10 10.828v7.242a2 2 0 0 0 4 0v-7.242l1.586 1.586c.39.39.902.586 1.414.586s1.023-.195 1.414-.586a2 2 0 0 0 0-2.828L12 3.172z"/></symbol><symbol id="typ-cancel" viewBox="0 0 24 24"><path d="M12 4c-4.41 0-8 3.59-8 8s3.59 8 8 8 8-3.59 8-8-3.59-8-8-8zm-5 8c0-.832.224-1.604.584-2.295l6.71 6.71c-.69.36-1.462.585-2.294.585-2.757 0-5-2.243-5-5zm9.416 2.295l-6.71-6.71A4.943 4.943 0 0 1 12 7c2.757 0 5 2.243 5 5 0 .832-.224 1.604-.584 2.295z"/></symbol><symbol id="typ-document-text" viewBox="0 0 24 24"><path d="M17 21H7c-1.654 0-3-1.346-3-3V6c0-1.654 1.346-3 3-3h10c1.654 0 3 1.346 3 3v12c0 1.654-1.346 3-3 3zM7 5c-.55 0-1 .45-1 1v12c0 .55.45 1 1 1h10c.55 0 1-.45 1-1V6c0-.55-.45-1-1-1H7zm9 6H8a.5.5 0 0 1 0-1h8a.5.5 0 0 1 0 1zm0-3H8a.5.5 0 0 1 0-1h8a.5.5 0 0 1 0 1zm0 6H8a.5.5 0 0 1 0-1h8a.5.5 0 0 1 0 1zm0 3H8a.5.5 0 0 1 0-1h8a.5.5 0 0 1 0 1z"/></symbol><symbol id="typ-key" viewBox="0 0 24 24"><path d="M8.5 11c0 .732.166 1.424.45 2.05L5 17v1.5S5.896 20 7 20h2v-2h2v-2h2.5c2.762 0 5-2.238 5-5s-2.238-5-5-5-5 2.238-5 5zm5 2a2 2 0 1 1 0-4 2 2 0 0 1 0 4z"/></symbol><symbol id="typ-location" viewBox="0 0 24 24"><path d="M17.657 5.304c-3.124-3.073-8.19-3.073-11.313 0a7.78 7.78 0 0 0 0 11.13L12 22l5.657-5.566a7.78 7.78 0 0 0 0-11.13zM12 13.5a2.503 2.503 0 0 1-1.768-4.268c.472-.473 1.1-.733 1.768-.733s1.296.26 1.768.73a2.503 2.503 0 0 1 0 3.537c-.472.472-1.1.732-1.768.732z"/></symbol><symbol id="typ-spanner" viewBox="0 0 24 24"><path d="M20.285 7.12a.505.505 0 0 0-.354-.345.493.493 0 0 0-.476.126L16.838 9.46l-1.914-.383-.38-1.907 2.644-2.585a.5.5 0 0 0-.2-.835A4.956 4.956 0 0 0 15.5 3.5c-2.757 0-5 2.243-5 5 0 .323.038.65.118 1.01-.562.463-1.096.862-1.7 1.314-.866.646-1.846 1.377-3.183 2.506A3.557 3.557 0 0 0 4.5 16c0 1.93 1.57 3.5 3.5 3.5 1.02 0 1.993-.456 2.662-1.25a58.432 58.432 0 0 0 2.544-3.21c.442-.59.832-1.11 1.283-1.66.36.082.687.12 1.01.12 2.757 0 5-2.243 5-5a4.85 4.85 0 0 0-.215-1.38zM8 17a1 1 0 0 1 0-2 1 1 0 0 1 0 2z"/></symbol><symbol id="typ-th-list" viewBox="0 0 24 24"><path d="M19 17h-7c-1.103 0-2 .897-2 2s.897 2 2 2h7c1.103 0 2-.897 2-2s-.897-2-2-2zm0-7h-7c-1.103 0-2 .897-2 2s.897 2 2 2h7c1.103 0 2-.897 2-2s-.897-2-2-2zm0-7h-7c-1.103 0-2 .897-2 2s.897 2 2 2h7c1.103 0 2-.897 2-2s-.897-2-2-2z"/><circle cx="5" cy="19" r="2.5"/><circle cx="5" cy="12" r="2.5"/><circle cx="5" cy="5" r="2.5"/></symbol><symbol id="typ-times" viewBox="0 0 24 24"><path d="M17.414 6.586a2 2 0 0 0-2.828 0L12 9.172 9.414 6.586a2 2 0 1 0-2.828 2.828L9.17 12l-2.584 2.586a2 2 0 1 0 2.828 2.828L12 14.828l2.586 2.586c.39.39.902.586 1.414.586s1.024-.195 1.414-.586a2 2 0 0 0 0-2.828L14.83 12l2.584-2.586a2 2 0 0 0 0-2.828z"/></symbol></svg>