<?xml version="1.0" encoding="UTF-8"?><!DOCTYPE svg PUBLIC "-//W3C//DTD SVG 1.1//EN" "http://www.w3.org/Graphics/SVG/1.1/DTD/svg11.dtd"><svg xmlns="http://www.w3.org/2000/svg"><symbol id="awe-caret-down" viewBox="0 0 2048 2048"><path d="M1536 832q0 26-19 45l-448 448q-19 19-45 19t-45-19L531 877q-19-19-19-45t19-45 45-19h896q26 0 45 19t19 45z"/></symbol><symbol id="awe-comment" viewBox="0 0 2048 2048"><path d="M1920 1024q0 174-120 321.5t-326 233-450 85.5q-70 0-145-8-198 175-460 242-49 14-114 22-17 2-30.5-9t-17.5-29v-1q-3-4-.5-12t2-10 4.5-9.5l6-9 7-8.5 8-9q7-8 31-34.5t34.5-38 31-39.5 32.5-51 27-59 26-76q-157-89-247.5-220T128 1024q0-130 71-248.5T390 571t286-136.5 348-50.5q244 0 450 85.5t326 233 120 321.5z"/></symbol><symbol id="awe-sort" viewBox="0 0 2048 2048"><path d="M1536 1216q0 26-19 45l-448 448q-19 19-45 19t-45-19l-448-448q-19-19-19-45t19-45 45-19h896q26 0 45 19t19 45zm0-384q0 26-19 45t-45 19H576q-26 0-45-19t-19-45 19-45l448-448q19-19 45-19t45 19l448 448q19 19 19 45z"/></symbol><symbol id="ion-image" viewBox="0 0 512 512"><path d="M368 224c26.5 0 48-21.5 48-48s-21.5-48-48-48-48 21.5-48 48 21.5 48 48 48z"/><path d="M452 64H60c-15.6 0-28 12.7-28 28.3v327.4c0 15.6 12.4 28.3 28 28.3h392c15.6 0 28-12.7 28-28.3V92.3c0-15.6-12.4-28.3-28-28.3zM348.9 261.7c-3-3.5-7.6-6.2-12.8-6.2-5.1 0-8.7 2.4-12.8 5.7L304.6 277c-3.9 2.8-7 4.7-11.5 4.7-4.3 0-8.2-1.6-11-4.1-1-.9-2.8-2.6-4.3-4.1L224 215.3c-4-4.6-10-7.5-16.7-7.5-6.7 0-12.9 3.3-16.8 7.8L64 368.2V107.7c1-6.8 6.3-11.7 13.1-11.7h357.7c6.9 0 12.5 5.1 12.9 12l.3 260.4-99.1-106.7z"/></symbol><symbol id="ion-search" viewBox="0 0 512 512"><path d="M445 386.7l-84.8-85.9c13.8-24.1 21-50.9 21-77.9C381.2 135.3 310 64 222.6 64 135.2 64 64 135.3 64 222.9c0 87.6 71.2 158.9 158.6 158.9 27.9 0 55.5-7.7 80.1-22.4l84.4 85.6c1.9 1.9 4.6 3.1 7.3 3.1s5.4-1.1 7.3-3.1l43.3-43.8c4-4.1 4-10.5 0-14.5zM222.6 125.9c53.4 0 96.8 43.5 96.8 97s-43.4 97-96.8 97-96.8-43.5-96.8-97 43.4-97 96.8-97z"/></symbol><symbol id="ion-social-apple" viewBox="0 0 512 512"><path d="M333.6 153.9c-33.6 0-47.8 16.5-71.2 16.5-24 0-42.3-16.4-71.4-16.4-28.5 0-58.9 17.9-78.2 48.4-27.1 43-22.5 124 21.4 193 15.7 24.7 36.7 52.4 64.2 52.7h.5c23.9 0 31-16.1 63.9-16.3h.5c32.4 0 38.9 16.2 62.7 16.2h.5c27.5-.3 49.6-31 65.3-55.6 11.3-17.7 15.5-26.6 24.2-46.6-63.5-24.8-73.7-117.4-10.9-152.9-19.2-24.7-46.1-39-71.5-39z"/><path d="M326.2 64c-20 1.4-43.3 14.5-57 31.6-12.4 15.5-22.6 38.5-18.6 60.8h1.6c21.3 0 43.1-13.2 55.8-30.1 12.3-16.1 21.6-38.9 18.2-62.3z"/></symbol><symbol id="ion-social-css3" viewBox="0 0 512 512"><path d="M256.282 339.488zM64 32l34.946 403.22L255.766 480l157.26-44.85L448 32H64zm290.676 334.898l-98.607 28.125-98.46-28.248L150.865 289h48.253l3.433 39.562 53.586 15.163.132.273h.034l53.467-14.852L315.38 265H203l-4-50h120.646l4.396-51H140l-4-49h240.58l-21.904 251.898z"/></symbol><symbol id="ion-social-html5" viewBox="0 0 512 512"><path d="M64 32l34.936 403.213L255.77 480l157.244-44.854L448 32H64zm307.997 132h-184l3.99 51h176.01L354.49 366.386l-98.5 28.094-98.68-27.976L150.544 289H198.8l3.422 39.287 53.77 14.78 53.42-14.914L314.988 264h-167l-12.572-149.59 240.79.017L371.996 164z"/></symbol><symbol id="ion-social-javascript" viewBox="0 0 512 512"><path d="M208 88h-80v212.5c0 52.58-18.032 67.26-49.412 67.26-14.705 0-27.948-2.52-38.25-6.063L32 423.904C46.7 428.966 69.26 432 86.907 432 158.955 432 208 398.13 208 301.02V88zM382.463 80C305.02 80 256 123.998 256 182.154c0 50.083 37.75 81.44 92.64 101.665 39.7 14.157 55.393 26.807 55.393 47.538 0 22.756-18.14 37.425-52.448 37.425-31.863 0-60.79-10.64-80.394-21.255v-.02L256 410.727c18.64 10.637 53.44 21.254 91.167 21.254C437.854 431.98 480 383.43 480 326.284c0-48.55-26.958-79.9-85.278-102.163-43.14-17.19-61.27-26.794-61.27-48.54 0-17.2 15.688-32.87 48.043-32.87 31.846 0 53.744 10.707 66.505 17.29l19.125-64c-20-8.78-46.937-16-84.662-16z"/></symbol><symbol id="ion-social-nodejs" viewBox="0 0 512 512"><path d="M255.917 480a32.536 32.536 0 0 1-16.633-4.6L186.3 442.96c-7.915-4.56-4.024-6.202-1.444-7.14 10.565-3.78 13.713-5.657 24.947-12.285 1.206-.667 2.747-.424 3.955.322l39.71 23.504c1.476.85 3.557.85 4.93 0l155.19-92.245c1.474-.877 2.414-2.646 2.414-4.44V163.868c0-1.85-.94-3.593-2.45-4.53l-155.12-94.67c-1.477-.895-3.42-.895-4.897 0l-155.02 94.704c-1.543.903-2.515 2.698-2.515 4.495v186.804c0 1.813.972 3.513 2.48 4.39l39.93 23.97c23.61 12.205 37.59-.17 37.59-14.61v-183.7c0-2.65 2.047-4.726 4.596-4.726h22.81c2.514 0 4.596 2.072 4.596 4.727v183.698c0 32.563-19.353 51.248-49.2 51.248-9.155 0-16.396 0-36.55-10.278l-41.585-24.78C70.37 374.458 64 362.964 64 350.655V161.19c0-12.315 6.37-23.783 16.665-29.916L239.35 36.41c10.027-5.88 23.374-5.88 33.332 0l158.65 94.864C441.63 137.424 448 148.9 448 161.19v189.466c0 12.31-6.37 23.75-16.668 29.953l-158.65 94.773a32.52 32.52 0 0 1-16.698 4.6l-.067.017z"/><path d="M304.943 351.998c-64.61 0-84.006-31.61-84.006-59.27 0-2.63 2.048-4.73 4.562-4.73h20.52c2.282 0 4.227 1.7 4.562 4.016 3.084 21.602 16.748 31.15 54.324 31.15 33.4 0 47.09-10.346 47.09-28.684 0-10.592-3.462-18.424-55.406-23.697-43.427-4.44-70.288-14.373-70.288-50.295 0-33.135 26.996-52.49 72.234-52.49 46.128 0 76.462 14 79.173 50.83.1 1.336-.37 2.628-1.242 3.643-.87.966-2.078 1.528-3.353 1.528h-20.59c-2.147 0-4.025-1.562-4.46-3.713-4.4-16.953-16.97-23.402-49.563-23.402-36.486 0-40.746 12.753-40.746 22.607 0 11.963 5.03 15.44 54.294 22.172 48.76 6.663 71.933 16.117 71.933 51.552 0 35.78-28.808 58.783-79.075 58.783h.035z"/></symbol><symbol id="ion-social-sass" viewBox="0 0 512 512"><path d="M511.784 329.108c-1.67-13.6-9.236-24.146-20.795-32.416l-.056-.04c-7.19-5.132-3.38-2.412-.047-.033-28.5-20.302-65.676-15.79-96.733-4.512-12.447-20.295-12.987-35.783-5.816-57.937.93-2.8.295-4.353-2.624-5.603-7.086-3.03-17.29-1.427-24.422.463-2.462.646-4.254 1.9-4.8 4.38-5.154 24.244-21.01 46.45-34.828 66.887-9.73-18.652-8.96-33.087-2.414-52.516.798-2.365.43-3.623-1.937-4.878-7.26-3.757-18.4-1.912-25.8.276-8.51 2.482-21.29 44.594-25.372 52.946-8.53 17.442-16.09 44.665-30.584 58.502-12.3-15.807 22.526-51.517 10.882-65.85-3.938-4.85-11.063-4.724-15.586-.617 1.085-7.61 1.648-12.61-.32-19.064-2.08-6.79-7.36-10.687-15.09-10.49-17.995.527-33.843 13.815-44.64 26.397-10.278 12.105-37.382 19.627-51.954 26.927-25.032-21.807-79.22-44.947-80.632-82.08-1.528-41.847 48.32-70.246 81.597-87.23 43.28-22.103 109.96-49.607 159.138-25.435 13.05 6.414 18.3 20.17 14.708 33.348-9.368 34.366-47.198 57.293-80.103 67.807-16.19 5.175-33.97 9.027-51.1 8.026-22.955-1.343-40.83-15.224-43.28-16.086-2.05-.39-1.89 2.26-1.348 3.664 23.816 62.433 144.417 16.68 175.956-15.37 15.19-15.422 24.413-30.366 28.35-53.895 4.617-27.584-15.633-44.843-31.003-51.958C213.212 56.65 105.494 103.89 46.577 152.05c-25.568 20.9-57.552 54.11-42.874 88.945 15.93 37.805 64.736 57.19 96.503 80.312-25.704 12.773-57.862 25.983-74.518 49.933-9.524 13.73-12.903 28.36-5.81 43.966 12.57 27.568 58.284 15.622 77.572 3.47 17.67-11.13 29.563-26.07 34.7-45.227 4.455-16.61 3.54-33.867-3.856-49.513l28.585-14.458c-7.698 23.075-11.098 52.002 4.88 72.854 6.402 8.338 23.017 8.675 29.817.31 8.816-10.942 14.664-24.654 20.503-37.205-.682 9.372-1.856 19.995 1.377 28.164 3.71 9.373 12.126 11.29 20.792 5.343 26.52-18.203 43.397-68.652 56.462-98.062 3.552 12.83 7.473 24.548 13.957 36.376 1.6 2.904 1.406 4.775-.797 7.196-9.685 10.675-32.826 28.48-35.07 42.9-.523 3.37 1.714 6.598 5.687 7.37 15.573 3.107 32.838-2.532 45.482-11.08 13.188-8.92 17.446-21.086 14.245-35.514-4.576-20.77 10.993-43.98 25.8-61.03 2.72 12.908 6.817 25.33 14.144 36.606-13.074 11.483-32.58 27.764-29.778 46.94.988 6.864 7.135 11.3 14.514 9.735 15.783-3.324 29.416-10.113 39.37-22.146 9.023-10.855 5.792-22.7 1.856-34.635 23.872-6.815 48.022-8.177 71.83-.027 11.496 3.91 20.756 10.5 26.25 20.818 6.725 12.644 2.938 24.292-10.05 32.604-3.288 2.104-5.563 3.833-4.45 4.743 1.11.91 4.9 2.113 13.283-3.152 8.384-5.267 13.51-12.383 14.823-21.725a37.09 37.09 0 0 0-.024-7.755zm-398.838 25.26c-1.358 16.672-9.636 30.192-23.175 41.113-7.616 6.16-17.1 11.177-26.52 12.093-9.417.917-16.75-1.46-17.377-11.23-1.764-27.493 40.923-54.424 64.625-62.533 2.02 6.86 3.01 13.666 2.432 20.587l.016-.03zm103.102-72.454c-3.903 22.31-14.83 62.347-32.314 78.336-2.356 2.143-4.61 2.018-5.81-.77-10.344-24.06 3.672-73.67 33.083-81.33 3.457-.888 5.602.583 5.04 3.764zm70.31 81.768c8.423-8.962 16.835-17.916 25.27-26.927 1.043 10.02-17.57 29.964-25.27 26.927zm80.715-17.696c-2.348 1.273-7.62 2.515-7.827.835-1.482-12.084 11.816-24.873 20.067-30.866 4.453 11.343-.818 23.834-12.24 30.032z"/></symbol><symbol id="ion-social-wordpress" viewBox="0 0 512 512"><path d="M259 271.3L226.2 367h-.1l-25.4 73.1c1.8.5 3.5.9 5.3 1.4h.3c15.8 4.2 32.4 6.5 49.5 6.5 8.5 0 16.8-.5 24.9-1.8 11.2-1.4 22-3.8 32.5-7.1 2.6-.8 5.2-1.7 7.8-2.6-2.8-6-8.8-19.3-9.1-19.9L259 271.3zM80.8 180.5C70.8 203.1 64 230.9 64 256c0 6.3.3 12.6.9 18.8 6.9 71.2 52.9 131 116.1 157.9 2.6 1.1 5.3 2.2 8 3.2L96 180.6c-8-.3-9.5.2-15.2-.1z"/><path d="M430.2 175.4c-4.3-9.3-9.4-18.2-15.1-26.6-1.6-2.4-3.4-4.8-5.1-7.2-21.5-28.8-50.8-51.4-84.9-64.6-21.4-8.4-44.8-13-69.2-13-60.3 0-114.2 28-149.4 71.7-6.5 8-12.3 16.6-17.5 25.6 14.2.1 31.8.1 33.8.1 18.1 0 46-2.2 46-2.2 9.4-.6 10.4 13.1 1.1 14.2 0 0-9.4 1.1-19.8 1.6L213 362l37.8-113.3-26.8-73.6c-9.4-.5-18.1-1.6-18.1-1.6-9.4-.5-8.2-14.8 1-14.2 0 0 28.5 2.2 45.5 2.2 18.1 0 46-2.2 46-2.2 9.3-.6 10.5 13.1 1.1 14.2 0 0-9.3 1.1-19.7 1.6l62.3 185.6 17.3-57.6c8.7-22.4 13.1-40.9 13.1-55.7 0-21.3-7.7-36.1-14.3-47.6-8.7-14.3-16.9-26.3-16.9-40.4 0-15.9 12-30.7 29-30.7h2.2c26.2-.7 34.8 25.3 35.9 43v.6c.4 7.2.1 12.5.1 18.8 0 17.4-3.3 37.1-13.1 61.8l-39 112.8-22.3 65.7c1.8-.8 3.5-1.6 5.3-2.5 56.7-27.4 98-82 106.7-146.7 1.3-8.5 1.9-17.2 1.9-26 0-28.9-6.4-56.3-17.8-80.8z"/></symbol><symbol id="typ-anchor" viewBox="0 0 24 24"><path d="M18 13.5a1 1 0 0 0-1 1 5.007 5.007 0 0 1-4 4.898V12h4a1 1 0 0 0 0-2h-4V8.816A2.99 2.99 0 0 0 15 6a3 3 0 0 0-6 0 2.99 2.99 0 0 0 2 2.816V10H7a1 1 0 0 0 0 2h4v7.398A5.008 5.008 0 0 1 7 14.5a1 1 0 0 0-2 0c0 3.86 3.14 7 7 7s7-3.14 7-7a1 1 0 0 0-1-1zM12 5c.55 0 1 .45 1 1s-.45 1-1 1-1-.45-1-1 .45-1 1-1z"/></symbol><symbol id="typ-arrow-left-thick" viewBox="0 0 24 24"><path d="M18 11h-7.244l1.586-1.586a2 2 0 1 0-2.828-2.828L3.1 13l6.414 6.414c.39.39.902.586 1.414.586s1.023-.195 1.414-.586a2 2 0 0 0 0-2.828L10.756 15H18a2 2 0 0 0 0-4z"/></symbol><symbol id="typ-arrow-right-thick" viewBox="0 0 24 24"><path d="M10.586 6.586a2 2 0 0 0 0 2.828L12.172 11H4.928a2 2 0 0 0 0 4h7.244l-1.586 1.586a2 2 0 1 0 2.828 2.828L19.828 13l-6.414-6.414a2 2 0 0 0-2.828 0z"/></symbol><symbol id="typ-arrow-up-thick" viewBox="0 0 24 24"><path d="M12 3.172L5.586 9.586a2 2 0 0 0 2.828 2.828L10 10.828v7.242a2 2 0 0 0 4 0v-7.242l1.586 1.586c.39.39.902.586 1.414.586s1.023-.195 1.414-.586a2 2 0 0 0 0-2.828L12 3.172z"/></symbol><symbol id="typ-cancel" viewBox="0 0 24 24"><path d="M12 4c-4.41 0-8 3.59-8 8s3.59 8 8 8 8-3.59 8-8-3.59-8-8-8zm-5 8c0-.832.224-1.604.584-2.295l6.71 6.71c-.69.36-1.462.585-2.294.585-2.757 0-5-2.243-5-5zm9.416 2.295l-6.71-6.71A4.943 4.943 0 0 1 12 7c2.757 0 5 2.243 5 5 0 .832-.224 1.604-.584 2.295z"/></symbol><symbol id="typ-document-text" viewBox="0 0 24 24"><path d="M17 21H7c-1.654 0-3-1.346-3-3V6c0-1.654 1.346-3 3-3h10c1.654 0 3 1.346 3 3v12c0 1.654-1.346 3-3 3zM7 5c-.55 0-1 .45-1 1v12c0 .55.45 1 1 1h10c.55 0 1-.45 1-1V6c0-.55-.45-1-1-1H7zm9 6H8a.5.5 0 0 1 0-1h8a.5.5 0 0 1 0 1zm0-3H8a.5.5 0 0 1 0-1h8a.5.5 0 0 1 0 1zm0 6H8a.5.5 0 0 1 0-1h8a.5.5 0 0 1 0 1zm0 3H8a.5.5 0 0 1 0-1h8a.5.5 0 0 1 0 1z"/></symbol><symbol id="typ-key" viewBox="0 0 24 24"><path d="M8.5 11c0 .732.166 1.424.45 2.05L5 17v1.5S5.896 20 7 20h2v-2h2v-2h2.5c2.762 0 5-2.238 5-5s-2.238-5-5-5-5 2.238-5 5zm5 2a2 2 0 1 1 0-4 2 2 0 0 1 0 4z"/></symbol><symbol id="typ-location" viewBox="0 0 24 24"><path d="M17.657 5.304c-3.124-3.073-8.19-3.073-11.313 0a7.78 7.78 0 0 0 0 11.13L12 22l5.657-5.566a7.78 7.78 0 0 0 0-11.13zM12 13.5a2.503 2.503 0 0 1-1.768-4.268c.472-.473 1.1-.733 1.768-.733s1.296.26 1.768.73a2.503 2.503 0 0 1 0 3.537c-.472.472-1.1.732-1.768.732z"/></symbol><symbol id="typ-social-at-circular" viewBox="0 0 24 24"><path d="M11.844 7.5c-2.48 0-4.438 2.02-4.438 4.5s2.05 4.5 4.53 4.5c.91 0 1.8-.27 2.548-.778a.5.5 0 0 0 .14-.694.495.495 0 0 0-.692-.132 3.466 3.466 0 0 1-1.965.604c-1.93 0-3.5-1.57-3.5-3.5s1.447-3.5 3.377-3.5 3.375 1.57 3.375 3.5v.25a.75.75 0 0 1-1.5 0V10.5c0-.276-.1-.5-.376-.5-.205 0-.318.124-.396.3a1.864 1.864 0 0 0-1.01-.3c-1.104 0-1.984.896-1.984 2a2.008 2.008 0 0 0 3.446 1.39c.32.37.664.61 1.192.61.965 0 1.627-.785 1.627-1.75V12c0-2.48-1.895-4.5-4.376-4.5zm.125 5.5c-.552 0-1-.45-1-1s.448-1 1-1a1 1 0 0 1 0 2zm.03 8c-4.963 0-9-4.037-9-9s4.037-9 9-9 9 4.037 9 9-4.037 9-9 9zm0-16c-3.86 0-7 3.14-7 7s3.14 7 7 7 7-3.14 7-7-3.14-7-7-7z"/></symbol><symbol id="typ-social-facebook-circular" viewBox="0 0 24 24"><path d="M18.354 5.624C16.604 3.884 14.466 3 12 3c-2.49 0-4.633.884-6.373 2.625C3.884 7.365 3 9.512 3 12c0 2.465.883 4.603 2.624 6.354C7.364 20.11 9.51 21 12 21c2.467 0 4.605-.89 6.356-2.643C20.11 16.604 21 14.465 21 12c0-2.488-.89-4.634-2.646-6.376zm-1.412 11.32C15.805 18.08 14.506 18.73 13 18.927V14h2v-2h-2v-1.4c0-.33.27-.6.6-.6H15V8h-1.397c-.742 0-1.36.273-1.857.822C11.25 9.37 11 10.037 11 10.83V12H9v2h2v4.93c-1.522-.195-2.826-.845-3.957-1.984C5.668 15.562 5 13.944 5 12c0-1.966.667-3.588 2.042-4.96C8.412 5.667 10.034 5 12 5c1.945 0 3.562.668 4.945 2.043C18.328 8.415 19 10.037 19 12c0 1.94-.673 3.56-2.058 4.943z"/></symbol><symbol id="typ-social-flickr-circular" viewBox="0 0 24 24"><path d="M12 21c-2.49 0-4.635-.89-6.376-2.646C3.884 16.604 3 14.464 3 12c0-2.488.884-4.634 2.627-6.375C7.367 3.885 9.512 3 12 3c2.466 0 4.604.883 6.354 2.624C20.11 7.366 21 9.512 21 12c0 2.465-.89 4.604-2.644 6.357C16.606 20.11 14.466 21 12 21zm0-16c-1.966 0-3.588.667-4.958 2.04C5.668 8.412 5 10.034 5 12c0 1.944.668 3.562 2.043 4.945C8.415 18.328 10.036 19 12 19c1.943 0 3.56-.673 4.94-2.057C18.328 15.56 19 13.94 19 12c0-1.963-.672-3.585-2.055-4.957C15.562 5.668 13.945 5 12 5zm-3 9.5c-1.38 0-2.5-1.12-2.5-2.5S7.62 9.5 9 9.5s2.5 1.12 2.5 2.5-1.12 2.5-2.5 2.5zm0-4c-.827 0-1.5.673-1.5 1.5s.673 1.5 1.5 1.5 1.5-.673 1.5-1.5-.673-1.5-1.5-1.5zm6 4c-1.38 0-2.5-1.12-2.5-2.5s1.12-2.5 2.5-2.5 2.5 1.12 2.5 2.5-1.12 2.5-2.5 2.5z"/></symbol><symbol id="typ-social-github-circular" viewBox="0 0 24 24"><path d="M12 21c-4.963 0-9-4.038-9-9s4.037-9 9-9 9 4.038 9 9-4.037 9-9 9zm0-16c-3.86 0-7 3.14-7 7s3.14 7 7 7 7-3.14 7-7-3.14-7-7-7zm1.565 7.626c.17 0 .316.084.44.255.125.17.188.38.188.626 0 .248-.062.457-.187.626-.125.17-.27.254-.44.254-.182 0-.338-.084-.462-.254-.124-.17-.187-.378-.187-.626s.062-.456.187-.625c.125-.17.28-.254.46-.254m2.21-2.29c.483.523.726 1.156.726 1.9 0 .48-.057.914-.166 1.3-.11.384-.252.698-.42.94-.17.24-.378.453-.627.634a3.26 3.26 0 0 1-.685.4c-.208.086-.446.15-.716.197a5.22 5.22 0 0 1-.606.08l-.44.008-.352.01-.488.01-.488-.01-.352-.01-.44-.01a5.168 5.168 0 0 1-.606-.078 3.272 3.272 0 0 1-.716-.196 3.19 3.19 0 0 1-.684-.4 2.74 2.74 0 0 1-.628-.635 3.196 3.196 0 0 1-.42-.94 4.78 4.78 0 0 1-.166-1.3c0-.743.242-1.376.725-1.898-.053-.026-.056-.286-.008-.782a4.65 4.65 0 0 1 .32-1.37c.6.064 1.342.404 2.23 1.017.3-.078.71-.118 1.232-.118.548 0 .958.04 1.233.118a8.29 8.29 0 0 1 1.16-.666c.374-.168.644-.267.814-.293l.254-.058c.173.417.278.875.32 1.37.05.496.048.756-.005.782m-3.754 5.027c1.084 0 1.9-.13 2.455-.39.553-.26.833-.796.833-1.605 0-.47-.176-.862-.53-1.175a1.192 1.192 0 0 0-.637-.313c-.237-.04-.606-.04-1.103 0-.495.04-.834.058-1.016.058-.247 0-.516-.013-.85-.04l-.783-.048a2.408 2.408 0 0 0-.616.07 1.235 1.235 0 0 0-.55.272c-.335.3-.506.69-.506 1.174 0 .81.274 1.345.82 1.605.548.26 1.362.39 2.445.39m-1.525-2.737c.17 0 .316.084.44.255.124.17.187.38.187.626 0 .248-.062.457-.187.626-.124.17-.27.254-.44.254-.182 0-.337-.084-.462-.254-.124-.17-.187-.378-.187-.626s.062-.456.187-.625c.125-.17.28-.254.462-.254"/></symbol><symbol id="typ-social-instagram-circular" viewBox="0 0 24 24"><path d="M12 3c-5 0-9 4-9 9s4 9 9 9 9-4 9-9-4-9-9-9zm0 7c1.1 0 2 .9 2 2s-.9 2-2 2-2-.9-2-2 .9-2 2-2zm2.8-2c0-.7.6-1.2 1.2-1.2s1.2.6 1.2 1.2-.5 1.2-1.2 1.2-1.2-.5-1.2-1.2zM12 19c-3.9 0-7-3.1-7-7h3c0 2.2 1.8 4 4 4s4-1.8 4-4h3c0 3.9-3.1 7-7 7z"/></symbol><symbol id="typ-social-twitter-circular" viewBox="0 0 24 24"><path d="M15.28 10.283c.357-.22.596-.52.712-.904-.35.185-.697.31-1.045.382a1.55 1.55 0 0 0-1.182-.507c-.464 0-.855.163-1.175.48a1.585 1.585 0 0 0-.478 1.157c0 .137.017.26.052.364-1.368-.048-2.5-.614-3.39-1.706-.152.267-.228.54-.228.82 0 .578.244 1.036.73 1.373a1.81 1.81 0 0 1-.73-.21c0 .414.12.76.365 1.063.244.3.558.492.94.573-.14.035-.285.052-.435.052a.826.826 0 0 1-.296-.037c.103.337.295.61.573.818.277.21.597.32.957.33-.59.465-1.27.694-2.035.694-.188 0-.32-.002-.4-.017.754.49 1.594.733 2.52.733.952 0 1.793-.24 2.523-.723.73-.48 1.27-1.07 1.617-1.767.348-.695.52-1.42.52-2.174v-.21c.337-.253.61-.538.82-.854-.3.133-.612.222-.936.267zM12 21c-2.49 0-4.635-.89-6.376-2.646C3.884 16.604 3 14.464 3 12c0-2.488.884-4.634 2.627-6.375C7.367 3.885 9.51 3 12 3c2.466 0 4.604.883 6.354 2.624C20.11 7.366 21 9.512 21 12c0 2.465-.89 4.604-2.644 6.357C16.606 20.11 14.466 21 12 21zm0-16c-1.966 0-3.588.667-4.958 2.04C5.667 8.412 5 10.034 5 12c0 1.944.668 3.562 2.043 4.945C8.415 18.328 10.036 19 12 19c1.943 0 3.56-.673 4.942-2.057C18.327 15.56 19 13.94 19 12c0-1.963-.672-3.585-2.055-4.957C15.562 5.668 13.945 5 12 5z"/></symbol><symbol id="typ-spanner" viewBox="0 0 24 24"><path d="M20.285 7.12a.505.505 0 0 0-.354-.345.493.493 0 0 0-.476.126L16.838 9.46l-1.914-.383-.38-1.907 2.644-2.585a.5.5 0 0 0-.2-.835A4.956 4.956 0 0 0 15.5 3.5c-2.757 0-5 2.243-5 5 0 .323.038.65.118 1.01-.562.463-1.096.862-1.7 1.314-.866.646-1.846 1.377-3.183 2.506A3.557 3.557 0 0 0 4.5 16c0 1.93 1.57 3.5 3.5 3.5 1.02 0 1.993-.456 2.662-1.25a58.432 58.432 0 0 0 2.544-3.21c.442-.59.832-1.11 1.283-1.66.36.082.687.12 1.01.12 2.757 0 5-2.243 5-5a4.85 4.85 0 0 0-.215-1.38zM8 17a1 1 0 0 1 0-2 1 1 0 0 1 0 2z"/></symbol><symbol id="typ-spiral" viewBox="0 0 24 24"><path d="M12 11.8c1-.4.7-1.8 0-2.4-1.1-.9-2.7-.4-3.4.8-1.5 2.4.9 5 3.4 4.9 2.7-.2 4.3-2.9 3.7-5.4-.7-3-3.9-4.5-6.7-3.6-2.6.8-4.2 3.5-4 6.2.3 3 2.6 5.4 5.5 5.9 2.8.5 5.7-.8 7.2-3.2.7-1.1 1.2-2.4 1.2-3.8 0-.5.5-1 1.1-.9.8 0 1 .8.9 1.4-.4 4.7-4.5 8.6-9.3 8.6-5.9 0-10.5-6.2-8-11.8C6.1 3.1 13.9 2 16.9 7.3c1.5 2.5 1.2 5.8-.9 7.9-2 2-5.3 2.4-7.7.7-2.2-1.6-2.9-4.9-1.1-7.2 1.7-2.3 5.5-2.4 7 .2 1.1 1.9 0 5.2-2.5 4.9-1.6 0-3-1.7-2.1-3.2.6-.9 1.9-.6 2.3.1.2.8.1 1.1.1 1.1z"/></symbol><symbol id="typ-th-list" viewBox="0 0 24 24"><path d="M19 17h-7c-1.103 0-2 .897-2 2s.897 2 2 2h7c1.103 0 2-.897 2-2s-.897-2-2-2zm0-7h-7c-1.103 0-2 .897-2 2s.897 2 2 2h7c1.103 0 2-.897 2-2s-.897-2-2-2zm0-7h-7c-1.103 0-2 .897-2 2s.897 2 2 2h7c1.103 0 2-.897 2-2s-.897-2-2-2z"/><circle cx="5" cy="19" r="2.5"/><circle cx="5" cy="12" r="2.5"/><circle cx="5" cy="5" r="2.5"/></symbol><symbol id="typ-times" viewBox="0 0 24 24"><path d="M17.414 6.586a2 2 0 0 0-2.828 0L12 9.172 9.414 6.586a2 2 0 1 0-2.828 2.828L9.17 12l-2.584 2.586a2 2 0 1 0 2.828 2.828L12 14.828l2.586 2.586c.39.39.902.586 1.414.586s1.024-.195 1.414-.586a2 2 0 0 0 0-2.828L14.83 12l2.584-2.586a2 2 0 0 0 0-2.828z"/></symbol></svg>